<?xml version="1.0" standalone="no"?>
<!DOCTYPE svg PUBLIC "-//W3C//DTD SVG 20010904//EN"
 "http://www.w3.org/TR/2001/REC-SVG-20010904/DTD/svg10.dtd">
<svg version="1.0" xmlns="http://www.w3.org/2000/svg"
 width="600.000000pt" height="600.000000pt" viewBox="0 0 600.000000 600.000000"
 preserveAspectRatio="xMidYMid meet">
<metadata>
Created by potrace 1.11, written by Peter Selinger 2001-2013
</metadata>
<g transform="translate(0.000000,600.000000) scale(0.100000,-0.100000)"
fill="#000000" stroke="none">
<path d="M2750 5657 c-3 -3 -38 -8 -77 -11 -89 -8 -245 -38 -373 -72 -261 -70
-534 -195 -772 -353 -565 -376 -966 -958 -1117 -1621 -100 -438 -86 -894 39
-1330 289 -1013 1158 -1763 2200 -1900 47 -6 99 -13 115 -16 34 -6 424 -6 470
0 17 2 59 7 95 11 36 4 67 8 70 10 3 2 26 6 50 10 555 80 1122 392 1528 838
23 26 45 47 49 47 4 0 7 -179 7 -398 l1 -397 125 0 125 0 1 633 1 632 -634 0
-634 0 3 -127 3 -126 418 0 c229 1 417 -1 417 -5 0 -10 -103 -126 -175 -195
-187 -183 -364 -308 -600 -428 -212 -107 -481 -197 -670 -224 -27 -4 -58 -9
-69 -11 -104 -19 -432 -26 -576 -12 -222 21 -447 75 -654 158 -176 70 -406
198 -544 303 -524 398 -848 938 -948 1582 -23 148 -28 515 -9 645 24 162 26
172 55 291 80 318 221 611 423 879 72 95 294 326 375 391 24 19 54 42 65 52
84 72 284 195 431 266 236 114 539 197 821 227 81 8 356 8 430 0 509 -57 914
-219 1285 -514 114 -90 304 -279 385 -381 271 -344 440 -737 504 -1171 21
-142 26 -478 9 -594 -12 -80 -11 -81 71 -91 88 -10 125 -16 143 -21 19 -6 28
7 33 44 29 217 25 519 -10 732 -3 19 -8 49 -10 65 -22 178 -129 502 -235 715
-69 140 -192 338 -268 432 -294 364 -579 595 -967 783 -224 109 -431 175 -710
226 -88 17 -167 22 -400 26 -159 3 -292 3 -295 0z"/>
<path d="M1210 4045 c-10 -12 -16 -13 -28 -3 -13 10 -14 10 -8 1 5 -9 0 -13
-13 -14 -29 -2 -34 -3 -48 -12 -7 -5 -18 -5 -25 -1 -7 4 -8 3 -4 -4 4 -7 -3
-16 -17 -21 -14 -6 -28 -15 -32 -21 -3 -5 -11 -8 -16 -5 -5 3 -6 -2 -2 -11 5
-13 3 -15 -7 -9 -10 6 -12 4 -7 -8 3 -9 1 -19 -5 -23 -7 -4 -8 -3 -4 4 4 7 5
12 2 12 -3 0 -14 -18 -25 -39 -14 -30 -16 -43 -7 -52 8 -9 7 -11 -4 -7 -12 4
-15 -3 -14 -36 0 -23 4 -48 8 -54 4 -7 2 -12 -3 -12 -6 0 -11 -4 -11 -10 0 -5
7 -7 15 -4 10 4 13 0 10 -16 -2 -12 2 -23 10 -27 8 -3 15 -9 15 -15 0 -5 -5
-6 -12 -2 -7 5 -8 3 -4 -5 5 -7 11 -10 14 -7 3 3 11 -3 19 -14 8 -11 21 -20
29 -20 9 0 12 -5 8 -12 -5 -8 -2 -9 9 -5 10 3 17 2 17 -2 0 -5 7 -12 16 -15
10 -4 13 -2 9 7 -4 6 -1 5 7 -4 7 -9 19 -14 27 -11 8 3 11 0 7 -6 -4 -7 1 -9
14 -7 11 2 20 -1 20 -6 0 -6 4 -7 10 -4 5 3 29 1 52 -6 24 -6 45 -10 47 -9 2
1 8 -4 12 -12 7 -10 9 -10 9 0 0 7 5 10 10 7 6 -4 8 -10 5 -14 -2 -5 9 -7 25
-6 17 1 30 -2 30 -7 0 -5 4 -7 9 -3 6 3 14 -3 20 -12 6 -10 11 -13 11 -6 0 15
60 -38 60 -54 0 -7 6 -13 13 -13 8 0 7 -4 -3 -10 -10 -6 -11 -10 -2 -10 6 0
12 -5 12 -11 0 -5 -5 -7 -10 -4 -13 8 -8 -18 5 -27 6 -5 5 -8 -4 -8 -7 0 -11
-6 -7 -15 3 -10 -3 -17 -20 -21 -17 -4 -22 -9 -14 -14 9 -5 9 -9 1 -14 -6 -4
-11 -5 -11 -1 0 3 -10 0 -22 -7 -21 -12 -41 -17 -78 -20 -8 0 -21 -6 -29 -12
-11 -8 -13 -8 -7 2 4 6 2 12 -3 12 -6 0 -11 -6 -11 -12 0 -9 -2 -10 -8 -2 -4
7 -18 12 -32 12 -53 0 -71 2 -67 10 3 4 -11 8 -31 10 -20 1 -40 9 -44 17 -5 7
-17 12 -28 10 -11 -2 -18 0 -15 6 4 5 1 9 -5 9 -6 0 -8 5 -5 10 3 6 -3 10 -14
10 -12 0 -21 5 -21 11 0 5 -4 7 -10 4 -5 -3 -10 0 -10 8 0 7 -7 14 -15 14 -8
0 -12 -4 -9 -9 3 -4 0 -8 -6 -8 -6 0 -8 -4 -5 -10 3 -5 -1 -10 -9 -10 -10 0
-13 -6 -9 -17 4 -10 2 -14 -4 -10 -7 4 -10 0 -9 -10 2 -10 0 -20 -4 -23 -4 -3
2 -14 13 -25 11 -11 17 -14 12 -7 -6 11 -3 11 13 1 12 -7 18 -17 16 -21 -3 -4
4 -8 15 -8 11 0 26 -7 34 -15 8 -8 17 -11 21 -8 3 4 6 1 6 -6 0 -7 5 -9 10 -6
6 3 10 1 10 -5 0 -6 4 -8 10 -5 5 3 20 -1 34 -10 19 -13 25 -13 29 -3 4 11 6
11 6 0 1 -7 6 -10 11 -7 6 3 10 2 10 -4 0 -5 26 -8 60 -7 33 1 60 -2 60 -7 0
-5 7 -4 15 3 12 10 15 10 15 -1 0 -11 2 -11 8 -2 5 7 19 10 36 7 18 -3 25 -1
21 6 -8 13 17 9 27 -5 5 -6 8 -3 8 7 0 11 5 15 15 12 8 -4 15 -1 15 6 0 10 4
9 16 0 12 -11 15 -11 12 0 -2 8 2 14 9 15 7 0 23 9 35 20 13 11 27 18 31 17 5
-1 6 2 2 7 -3 6 3 16 14 22 10 7 17 19 14 26 -3 7 0 13 7 13 6 0 8 5 5 10 -3
6 -2 10 4 10 6 0 9 16 7 35 -1 19 1 35 5 35 4 0 4 14 -1 30 -6 20 -5 30 2 30
6 0 4 8 -5 18 -10 10 -17 26 -17 35 0 9 -4 17 -10 17 -5 0 -10 9 -10 20 0 18
-10 25 -32 21 -5 0 -8 6 -8 15 0 10 -5 14 -16 10 -8 -3 -13 -2 -10 2 3 4 -4
14 -16 21 -16 10 -19 10 -12 -1 4 -8 0 -7 -12 3 -32 26 -48 34 -39 18 7 -11 6
-12 -7 -2 -8 7 -18 10 -21 6 -4 -3 -7 -2 -7 4 0 6 -9 9 -20 6 -13 -3 -20 0
-20 8 0 11 -2 11 -10 -1 -8 -13 -10 -12 -10 4 0 15 -3 16 -14 7 -11 -10 -17
-8 -25 6 -6 10 -11 13 -11 5 0 -10 -5 -10 -20 -2 -11 6 -20 8 -20 4 0 -3 -6
-1 -14 5 -7 6 -22 8 -31 4 -12 -4 -16 -3 -12 4 4 6 0 14 -9 17 -8 3 -13 2 -10
-3 4 -5 -5 -4 -18 2 -13 7 -22 16 -19 21 4 5 -3 7 -15 4 -14 -4 -19 -2 -16 7
3 7 -1 19 -9 26 -22 23 -23 25 -7 44 13 17 13 18 0 10 -13 -8 -13 -7 -1 8 8
11 9 17 2 17 -8 0 -7 7 1 25 6 13 15 22 19 19 5 -3 9 2 9 10 0 9 5 16 11 16 5
0 8 4 4 9 -3 6 4 8 15 6 11 -2 20 1 20 6 0 6 5 7 10 4 6 -3 10 -1 10 6 0 6 8
9 20 6 11 -3 20 0 21 6 0 7 4 3 9 -8 6 -13 9 -15 9 -5 1 11 13 15 40 15 22 1
38 -2 35 -6 -2 -4 6 -5 18 -1 12 3 19 1 15 -5 -4 -6 8 -9 28 -8 23 0 35 -4 35
-12 0 -7 11 -13 26 -13 14 0 23 -4 19 -10 -3 -5 1 -10 9 -10 8 0 21 -10 27
-22 10 -19 13 -20 23 -6 6 8 16 13 23 11 7 -3 9 3 6 16 -3 12 -1 21 6 21 6 0
11 9 11 21 0 13 4 18 13 14 6 -4 4 0 -5 8 -10 8 -18 20 -18 26 0 7 -4 10 -9 6
-5 -3 -16 1 -24 9 -8 8 -17 12 -21 9 -3 -4 -6 -1 -6 6 0 7 -4 9 -10 6 -5 -3
-10 -1 -10 5 0 6 -4 8 -10 5 -5 -3 -10 -2 -10 3 0 6 -7 13 -16 16 -10 4 -13 2
-8 -7 6 -9 5 -9 -8 0 -8 7 -18 10 -21 6 -4 -3 -7 -1 -7 5 0 6 -7 9 -15 5 -9
-3 -15 -1 -13 5 2 5 -1 10 -7 11 -5 1 -10 -3 -10 -8 0 -5 -4 -13 -9 -18 -5 -4
-6 -3 -2 4 8 15 -10 27 -19 13 -5 -8 -11 -7 -21 1 -8 6 -14 8 -14 3 0 -5 -5
-2 -10 6 -8 12 -10 12 -10 -5 0 -17 -2 -17 -10 -5 -7 11 -10 11 -10 2 0 -7 -5
-10 -10 -7 -6 4 -8 11 -5 16 10 15 -1 10 -15 -6z"/>
<path d="M2526 4048 c5 -13 1 -16 -15 -13 -13 2 -21 -1 -21 -10 0 -7 -7 -15
-15 -19 -8 -3 -14 -9 -13 -13 4 -15 -14 -53 -22 -48 -5 3 -7 -4 -5 -15 2 -11
0 -18 -5 -15 -5 3 -12 -5 -15 -17 -4 -13 -13 -30 -20 -38 -8 -8 -15 -19 -17
-25 -2 -5 -7 -9 -13 -7 -5 2 -7 0 -2 -4 4 -4 -1 -16 -10 -27 -13 -15 -14 -18
-3 -12 12 7 13 6 3 -7 -7 -8 -9 -19 -5 -23 4 -5 2 -5 -5 -1 -7 3 -14 -2 -18
-14 -4 -11 -11 -17 -17 -14 -7 5 -8 2 -3 -5 4 -7 -3 -23 -16 -39 -19 -21 -20
-23 -4 -12 l20 15 -20 -25 c-11 -14 -24 -28 -29 -31 -5 -4 -5 -12 -2 -18 4 -6
0 -11 -11 -11 -15 0 -16 -2 -3 -10 13 -8 12 -10 -3 -10 -10 0 -15 -5 -12 -11
4 -6 -1 -17 -11 -24 -11 -8 -15 -15 -11 -15 5 0 1 -7 -7 -16 -9 -8 -14 -20
-11 -25 4 -5 -1 -9 -10 -9 -8 0 -18 7 -21 15 -4 8 -11 12 -18 8 -7 -4 -7 -1 1
8 11 13 8 20 -13 38 -13 12 -22 26 -19 31 3 6 1 10 -4 10 -6 0 -11 7 -11 15 0
7 -6 18 -12 22 -7 4 -13 15 -13 23 0 8 -5 14 -11 13 -8 -1 -10 6 -6 19 4 16 2
20 -10 15 -11 -4 -14 -1 -11 12 3 11 -2 21 -11 24 -9 4 -16 18 -16 32 0 16 -6
25 -16 25 -8 0 -13 4 -9 9 3 5 -1 15 -8 23 -8 7 -13 21 -11 31 2 15 0 16 -14
5 -13 -11 -15 -10 -10 10 4 12 2 22 -3 22 -5 0 -17 18 -26 40 -10 22 -22 40
-28 40 -5 0 -3 5 5 10 13 8 12 10 -3 10 -10 0 -16 4 -13 8 3 5 -4 14 -14 22
-10 8 -17 17 -14 21 5 9 -30 4 -48 -7 -7 -4 -8 -3 -4 4 4 7 3 12 -3 12 -5 0
-12 -6 -14 -12 -4 -10 -8 -9 -16 2 -17 25 -26 1 -28 -83 -2 -45 -3 -86 -3 -92
0 -5 1 -50 2 -98 2 -49 -1 -91 -5 -94 -4 -3 -4 -10 0 -16 5 -7 7 -48 6 -92 -3
-106 -3 -93 0 -238 1 -71 -2 -131 -6 -134 -4 -3 -4 -10 2 -16 9 -12 11 -18 11
-36 0 -8 22 -7 68 3 12 3 20 1 17 -3 -3 -5 6 -8 19 -7 17 1 21 4 15 13 -7 7
-6 14 1 18 6 4 8 16 5 26 -4 11 -1 27 6 35 7 8 8 14 3 13 -23 -4 -26 2 -8 16
10 9 13 14 5 13 -7 -2 -16 3 -19 11 -2 8 0 11 5 8 5 -3 10 0 10 8 0 8 -4 12
-9 9 -4 -3 -6 1 -3 8 8 23 12 88 5 83 -4 -2 -7 2 -7 10 0 8 4 12 9 9 8 -5 4
26 -8 64 -2 6 4 12 14 12 16 1 16 1 0 11 -10 5 -18 15 -18 20 0 6 4 8 8 5 5
-3 9 1 9 9 0 8 -3 12 -6 11 -3 -2 -6 11 -6 30 0 23 5 34 15 34 12 0 12 2 2 9
-17 10 -22 41 -11 63 6 11 5 19 -3 24 -7 5 -8 3 -3 -6 5 -9 4 -11 -4 -6 -6 4
-9 12 -5 17 3 5 10 7 15 4 12 -8 11 2 -2 27 -8 15 -8 19 0 14 6 -4 11 -1 11 6
0 7 7 2 16 -10 8 -12 13 -26 10 -31 -3 -4 6 -19 19 -31 14 -13 25 -32 25 -42
0 -10 7 -18 15 -18 8 0 15 -5 15 -11 0 -5 -4 -7 -10 -4 -6 3 -7 -1 -4 -9 3 -9
10 -16 14 -16 5 0 12 -9 15 -20 3 -11 14 -20 23 -20 13 0 14 -2 4 -8 -10 -7
-8 -14 7 -34 11 -14 17 -29 13 -33 -4 -5 0 -6 9 -3 9 4 16 1 16 -8 0 -7 -4
-11 -9 -8 -4 3 -5 -2 -2 -10 3 -8 12 -12 20 -9 9 3 12 0 9 -9 -3 -8 3 -25 14
-37 12 -13 18 -28 15 -32 -3 -5 0 -9 5 -9 6 0 11 -9 11 -21 0 -11 5 -17 10
-14 6 3 10 2 10 -3 0 -6 7 -13 16 -16 9 -3 12 -2 8 5 -3 6 3 5 14 -2 16 -10
23 -10 36 4 9 8 16 21 16 27 0 6 4 8 10 5 6 -3 7 1 4 9 -4 9 -1 16 6 16 7 0
10 6 7 13 -3 7 6 24 19 36 14 13 22 26 20 29 -3 2 2 11 10 19 8 8 12 19 8 24
-3 5 0 8 8 7 7 -2 13 4 13 12 0 8 7 21 15 28 13 12 13 13 0 6 -8 -4 -5 3 8 15
12 12 22 29 22 37 0 9 5 12 12 8 8 -5 9 -2 5 9 -3 10 -2 17 4 17 6 0 7 5 4 10
-3 6 1 10 9 10 10 0 13 6 10 15 -4 8 1 17 9 21 9 3 14 11 11 19 -3 7 1 19 9
26 7 8 19 23 26 34 9 15 11 16 7 3 -8 -26 3 -22 15 5 9 22 9 22 5 -2 -3 -14 0
-32 7 -40 7 -8 7 -12 1 -8 -7 4 -10 -12 -10 -51 1 -31 -2 -65 -7 -76 -6 -13
-6 -16 2 -12 6 4 11 0 11 -9 0 -9 -4 -14 -8 -11 -5 3 -9 -1 -9 -9 0 -8 4 -12
9 -9 14 9 9 -9 -9 -28 -11 -12 -12 -18 -3 -18 8 0 11 -10 8 -30 -4 -25 -2 -28
10 -17 13 10 14 9 3 -10 -6 -12 -10 -35 -9 -50 1 -16 -2 -35 -7 -42 -5 -10 -4
-12 3 -7 7 4 12 1 12 -9 0 -9 -4 -14 -8 -11 -5 3 -9 -1 -9 -9 0 -8 4 -12 9 -9
4 3 8 0 8 -5 0 -6 -5 -11 -10 -11 -7 0 -7 -6 0 -19 7 -14 6 -21 -3 -24 -9 -4
-9 -6 1 -6 6 -1 12 -6 12 -12 0 -6 -6 -7 -12 -2 -7 4 -5 -6 6 -21 14 -22 15
-28 4 -24 -13 5 -16 -9 -9 -41 1 -2 8 2 16 9 8 7 15 8 15 3 0 -11 42 -9 61 3
7 4 9 3 5 -4 -4 -6 1 -10 12 -9 17 1 18 11 17 109 -1 59 2 105 7 102 4 -3 5 2
2 10 -3 9 -11 13 -18 9 -6 -3 -3 3 7 14 9 11 14 22 11 26 -11 11 -14 108 -4
102 6 -3 7 1 4 9 -3 9 -11 13 -18 9 -6 -3 -3 3 7 14 9 11 14 22 11 26 -10 9
-12 187 -3 181 5 -3 6 2 3 10 -3 9 -11 13 -18 9 -6 -3 -3 3 7 14 9 11 14 22
11 26 -3 3 -7 46 -9 96 -2 65 1 89 9 84 6 -4 4 1 -4 12 -8 10 -14 20 -12 22 1
1 2 10 2 18 0 12 -7 14 -26 9 -21 -5 -25 -4 -20 7 4 8 1 6 -6 -3 -13 -15 -15
-15 -26 0 -11 16 -11 16 -6 0z m-22 -554 c3 -8 2 -12 -4 -9 -6 3 -10 10 -10
16 0 14 7 11 14 -7z"/>
<path d="M4862 4048 c-6 -6 -12 -8 -12 -4 0 5 -8 2 -17 -5 -9 -8 -14 -9 -10
-3 3 6 0 11 -8 11 -8 0 -12 -4 -9 -9 3 -4 0 -8 -5 -8 -6 0 -11 5 -11 10 0 6
-5 10 -11 10 -5 0 -8 -3 -6 -7 3 -5 -6 -9 -19 -9 -13 -1 -24 3 -24 8 0 6 -8 4
-17 -3 -9 -8 -14 -9 -10 -3 3 6 0 11 -8 11 -8 0 -12 -4 -9 -9 3 -4 0 -8 -5 -8
-6 0 -11 6 -11 13 0 9 -3 8 -9 -2 -7 -11 -9 -11 -14 0 -4 12 -7 11 -16 -1 -8
-12 -11 -12 -11 -1 0 11 -3 11 -15 1 -10 -9 -15 -9 -15 -1 0 6 -5 11 -11 11
-5 0 -8 -3 -6 -8 3 -4 -8 -7 -23 -7 -16 -1 -26 3 -24 7 3 4 0 8 -5 8 -6 0 -11
-4 -11 -8 0 -4 -9 -8 -20 -8 -11 0 -20 4 -20 8 0 4 -5 8 -11 8 -5 0 -7 -6 -3
-12 5 -9 2 -9 -9 1 -14 11 -17 11 -17 0 0 -12 -2 -12 -9 0 -6 10 -10 10 -16 1
-6 -9 -10 -9 -16 1 -8 12 -11 11 -19 -1 -5 -9 -10 -10 -10 -3 0 12 -17 12 -37
0 -6 -4 -14 -1 -17 5 -3 7 -3 1 -1 -14 2 -15 6 -32 10 -38 4 -6 -1 -7 -12 -3
-16 6 -16 4 2 -17 11 -13 15 -20 8 -17 -7 5 -9 0 -6 -14 4 -15 8 -17 14 -8 6
10 10 9 15 -5 5 -14 9 -15 15 -4 8 11 10 11 18 -1 7 -11 9 -11 14 0 5 12 7 12
15 0 8 -11 10 -11 15 0 4 12 7 11 16 -1 7 -10 11 -11 11 -2 0 6 7 12 16 12 9
0 12 -5 8 -12 -6 -10 -5 -10 7 -1 12 10 18 10 29 0 10 -9 11 -9 6 1 -4 7 -1
12 8 12 9 0 16 -6 16 -12 0 -10 2 -10 9 0 9 14 32 13 43 -3 4 -6 8 -2 8 8 0 9
5 17 11 17 5 0 8 -4 4 -9 -3 -5 -1 -12 4 -15 5 -4 8 -25 7 -49 -1 -23 1 -50 6
-59 5 -10 5 -18 0 -18 -10 0 -8 -92 2 -109 4 -6 3 -11 -1 -11 -5 0 -8 -22 -8
-50 0 -27 4 -50 10 -50 5 0 4 -4 -3 -9 -8 -4 -14 -12 -14 -16 0 -4 6 -12 14
-16 7 -5 8 -9 2 -9 -6 0 -11 -7 -11 -15 0 -8 5 -15 11 -15 6 0 5 -4 -2 -9 -8
-4 -14 -12 -14 -16 0 -4 6 -12 14 -16 7 -5 8 -9 2 -9 -6 0 -11 -7 -11 -15 0
-8 5 -15 11 -15 6 0 5 -4 -2 -9 -8 -4 -14 -12 -14 -16 0 -4 6 -12 14 -16 7 -5
8 -9 2 -9 -6 0 -11 -7 -11 -15 0 -8 5 -15 11 -15 6 0 5 -4 -2 -9 -8 -4 -14
-12 -14 -16 0 -4 6 -12 14 -16 9 -6 10 -11 3 -16 -9 -7 -10 -72 -3 -129 1 -7
21 -10 51 -10 40 2 53 7 65 24 8 12 10 22 5 22 -5 0 -9 9 -9 19 0 11 4 17 8
15 4 -3 8 0 8 5 0 6 -4 11 -10 11 -5 0 -10 5 -10 11 0 5 6 7 13 3 9 -5 9 -4 0
6 -8 8 -9 20 -3 36 6 15 6 24 0 24 -6 0 -10 5 -10 11 0 5 4 8 8 5 4 -2 8 4 8
14 0 10 -4 16 -8 14 -12 -8 -9 11 4 24 9 9 9 12 0 12 -10 0 -10 5 -2 20 6 11
7 20 2 20 -10 0 -9 91 2 108 4 7 2 12 -4 12 -8 0 -8 6 0 20 8 15 8 20 -2 20
-9 0 -9 3 2 10 8 5 10 10 4 10 -12 0 -11 60 0 79 4 6 3 11 -1 11 -5 0 -9 9 -9
19 0 11 4 17 8 15 4 -3 8 -1 8 5 0 5 -6 11 -12 14 -10 3 -10 7 1 20 9 12 10
17 2 17 -9 0 -9 5 -1 20 8 15 8 20 -2 20 -9 0 -9 3 2 10 8 5 10 10 4 10 -12 0
-12 49 0 68 5 9 51 11 51 2 0 -1 10 -3 22 -4 19 -2 21 0 10 13 -9 12 -5 11 17
-3 27 -17 29 -17 22 -1 -6 17 -5 17 20 0 23 -15 26 -15 21 -2 -4 11 -2 14 9
10 7 -3 14 -9 14 -15 0 -5 5 -6 10 -3 6 4 7 12 3 18 -4 7 6 4 21 -7 16 -10 26
-13 22 -7 -4 6 6 9 29 7 34 -2 47 7 23 17 -9 4 -8 6 2 6 12 1 14 12 12 51 -2
27 -8 50 -14 50 -5 0 -6 -4 -3 -10 3 -5 -1 -10 -10 -10 -9 0 -13 5 -9 11 4 7
-2 6 -17 -1 -18 -10 -24 -10 -27 -1 -3 9 -8 9 -20 -1 -9 -7 -13 -8 -9 -2 3 6
0 11 -8 11 -8 0 -12 -4 -9 -9 3 -4 1 -8 -5 -8 -5 0 -12 6 -14 13 -4 8 -6 8 -6
-2 -1 -12 -4 -11 -14 2 -10 14 -15 15 -25 5z"/>
<path d="M3070 4036 c0 -8 -7 -16 -15 -20 -8 -3 -12 -12 -9 -21 3 -8 2 -15 -4
-15 -6 0 -9 -11 -8 -25 2 -13 -2 -23 -7 -22 -6 1 -11 -3 -12 -10 0 -6 -3 -14
-7 -18 -4 -4 -4 -14 -1 -23 4 -10 2 -13 -5 -8 -8 4 -12 1 -12 -10 0 -10 -8
-26 -17 -37 -10 -11 -12 -17 -5 -13 6 4 12 2 12 -3 0 -6 -4 -11 -10 -11 -5 0
-9 -6 -7 -12 1 -7 -3 -12 -9 -11 -6 1 -11 -6 -11 -15 0 -42 -4 -52 -20 -53
-12 0 -13 -2 -5 -6 10 -4 10 -8 1 -19 -6 -8 -8 -14 -3 -14 4 0 -1 -7 -12 -16
-10 -8 -12 -12 -4 -8 13 7 13 5 1 -9 -7 -9 -10 -17 -7 -17 4 0 1 -6 -6 -14 -7
-8 -17 -11 -23 -8 -5 3 -4 -1 3 -10 10 -13 10 -19 -3 -31 -8 -9 -15 -22 -15
-29 0 -8 -6 -20 -12 -27 -11 -11 -10 -13 2 -7 12 6 12 5 -1 -6 -9 -7 -14 -19
-12 -25 3 -7 -3 -16 -11 -19 -13 -5 -14 -9 -5 -20 8 -10 8 -14 0 -14 -6 0 -11
-7 -11 -16 0 -8 -5 -12 -11 -8 -8 4 -9 0 -4 -15 4 -13 2 -21 -5 -21 -6 0 -8
-4 -5 -10 3 -5 1 -10 -5 -10 -6 0 -8 -4 -5 -10 3 -5 1 -10 -5 -10 -6 0 -8 -11
-6 -26 3 -15 2 -24 -1 -20 -10 10 -32 -14 -26 -30 3 -8 -1 -14 -8 -14 -11 0
-11 -3 1 -10 12 -7 12 -10 1 -10 -8 0 -11 -6 -7 -16 4 -12 2 -15 -9 -10 -16 6
-16 -11 -1 -29 11 -13 85 -13 105 -1 10 7 12 6 6 -4 -6 -9 -4 -11 4 -5 7 4 11
16 8 26 -3 11 -1 17 4 13 5 -3 9 0 9 6 0 6 4 9 8 6 5 -3 9 1 9 9 0 8 -5 15
-11 15 -6 0 -3 5 7 11 9 6 15 14 12 20 -4 5 -2 9 4 9 6 0 8 6 5 14 -3 7 2 21
11 30 9 9 14 16 10 16 -3 0 2 14 10 31 9 17 14 37 11 44 -2 7 2 16 10 19 10 4
13 2 8 -7 -6 -9 -4 -9 7 -1 22 18 354 13 371 -5 10 -10 10 -12 1 -7 -18 10
-16 -9 3 -25 8 -7 13 -21 11 -31 -3 -12 0 -18 10 -18 11 0 14 -7 11 -25 -3
-15 -1 -22 5 -18 6 4 8 0 4 -11 -4 -10 -3 -15 3 -11 6 3 10 -3 10 -14 0 -12 5
-21 11 -21 5 0 8 -4 4 -9 -3 -5 -1 -12 4 -16 6 -3 8 -12 5 -19 -3 -8 0 -18 8
-22 15 -10 68 -13 68 -4 0 4 7 7 15 7 8 0 12 -4 10 -8 -3 -4 6 -6 19 -5 25 1
30 25 8 39 -7 5 -10 19 -8 33 4 21 2 23 -9 14 -10 -9 -13 -7 -11 7 2 10 -4 24
-13 31 -9 8 -10 11 -3 7 6 -3 12 -1 12 4 0 6 -4 11 -10 11 -5 0 -10 11 -10 25
0 14 -4 25 -10 25 -5 0 -10 9 -10 20 0 11 -6 20 -12 20 -9 0 -8 4 2 10 13 8
13 10 -2 10 -11 0 -15 5 -12 15 4 8 1 15 -7 15 -7 0 -9 3 -6 7 4 3 1 13 -6 21
-10 13 -9 15 3 8 9 -4 8 -1 -2 7 -10 8 -19 26 -20 41 -1 14 -6 26 -10 26 -4 0
-8 7 -8 15 0 8 -5 15 -12 15 -6 0 -8 3 -5 7 4 3 1 13 -6 21 -10 13 -9 15 3 8
9 -4 8 -2 -2 7 -10 8 -15 17 -11 20 3 4 1 7 -6 7 -9 0 -9 5 -1 20 9 17 8 19
-7 13 -10 -3 -15 -3 -11 2 4 4 3 14 -3 22 -6 7 -9 13 -5 13 4 0 0 13 -8 29 -9
16 -12 31 -9 35 4 3 -2 6 -13 6 -14 0 -16 2 -6 9 11 6 10 10 -3 15 -14 5 -15
9 -5 21 10 12 9 15 -5 15 -11 0 -15 5 -11 15 3 8 1 15 -5 15 -6 0 -8 4 -5 9 3
5 -1 14 -9 21 -8 7 -12 17 -9 22 3 5 -2 16 -12 24 -11 9 -14 13 -7 10 6 -3 3
12 -8 33 -10 22 -19 45 -19 51 0 6 -4 8 -10 5 -5 -3 -10 0 -10 7 0 9 -3 9 -10
-2 -8 -12 -10 -12 -10 -1 0 11 -3 11 -17 0 -13 -11 -17 -11 -20 -1 -6 16 -23
15 -23 -2z m64 -208 c8 -18 16 -42 18 -53 2 -11 9 -26 16 -34 7 -7 11 -20 8
-28 -3 -8 -1 -11 4 -8 6 3 10 -3 10 -14 0 -12 6 -21 13 -21 9 0 9 -2 -1 -9
-11 -6 -10 -10 3 -15 10 -3 15 -12 11 -21 -3 -8 -2 -15 2 -15 4 0 12 -11 19
-25 8 -19 8 -24 0 -19 -7 3 -4 -1 5 -9 16 -12 16 -16 3 -33 -13 -16 -16 -17
-25 -4 -8 13 -10 12 -10 -5 0 -17 -2 -17 -10 -5 -5 8 -10 10 -10 4 0 -15 -46
-9 -67 8 -10 8 -14 8 -10 1 9 -15 -21 -22 -51 -11 -15 5 -21 4 -17 -2 8 -13
-1 -13 -25 0 -13 7 -21 7 -25 0 -8 -13 -25 -3 -25 13 0 7 4 6 11 -3 7 -11 8
-6 4 19 -6 27 -4 32 6 25 11 -6 11 -4 0 10 -12 14 -12 17 -1 14 9 -2 16 9 20
27 3 17 12 29 19 27 9 -2 10 2 3 15 -7 12 -4 21 12 36 11 10 15 16 9 12 -7 -3
-13 -2 -13 4 0 5 5 11 11 13 9 3 15 22 18 51 1 5 5 6 10 3 5 -3 8 7 7 23 -1
16 3 29 8 28 6 -1 10 6 10 16 -3 28 14 20 30 -15z"/>
<path d="M3636 4038 c3 -4 0 -8 -6 -8 -7 0 -9 -7 -6 -16 3 -8 2 -12 -4 -9 -6
3 -10 1 -10 -4 0 -6 5 -11 10 -11 6 0 10 -5 10 -11 0 -5 -4 -7 -10 -4 -11 7
-14 -8 -3 -19 10 -10 10 -86 1 -80 -5 3 -8 1 -8 -5 0 -5 4 -12 9 -15 5 -4 8
-14 6 -24 -2 -9 -4 -23 -4 -30 -1 -8 -6 -10 -13 -6 -10 6 -10 5 -1 -7 6 -8 12
-17 12 -21 1 -5 2 -9 2 -10 6 -12 2 -125 -3 -122 -13 8 -9 -11 5 -25 10 -11
10 -13 0 -7 -7 4 -13 2 -13 -3 0 -6 5 -11 11 -11 8 0 8 -4 0 -14 -8 -9 -8 -16
-2 -20 10 -7 9 -52 -2 -63 -4 -3 -2 -12 4 -20 9 -10 8 -17 -1 -28 -10 -12 -10
-15 0 -15 10 0 10 -3 1 -14 -8 -9 -8 -16 -2 -20 10 -7 9 -45 -2 -63 -3 -5 -3
-13 1 -17 9 -10 9 -86 0 -80 -5 3 -8 1 -8 -5 0 -5 4 -12 9 -16 9 -5 8 -36 -2
-53 -3 -4 1 -13 9 -19 8 -8 15 -9 19 -3 4 6 12 7 18 3 26 -16 59 -10 75 15 12
19 13 27 4 30 -9 3 -9 9 -1 24 8 16 8 19 -1 13 -9 -6 -9 -3 -1 13 8 14 8 23 1
27 -8 5 -7 12 2 23 10 12 10 16 1 19 -8 3 -10 11 -5 21 5 9 8 41 6 70 -2 59
-14 54 121 54 108 0 117 -1 110 -12 -3 -5 -1 -10 4 -10 6 0 11 -7 11 -15 0 -8
5 -15 11 -15 5 0 15 -13 20 -30 6 -16 15 -30 20 -30 5 0 9 -9 9 -21 0 -11 5
-17 10 -14 9 6 14 -8 11 -27 0 -5 7 -8 17 -9 9 0 12 -3 5 -6 -8 -3 -3 -13 15
-30 15 -13 22 -22 16 -19 -6 3 -11 -1 -11 -8 0 -8 7 -12 15 -8 10 3 13 1 8 -6
-4 -7 -3 -12 2 -12 6 0 13 -12 16 -26 6 -21 9 -24 21 -14 11 9 15 9 15 1 0 -9
5 -9 21 0 15 8 19 8 15 0 -4 -6 -3 -11 3 -11 5 0 12 6 14 13 4 9 6 8 6 -2 1
-11 4 -11 18 0 14 12 16 12 9 0 -6 -9 -5 -12 5 -9 16 6 13 39 -4 50 -8 5 -7 8
3 9 9 0 7 4 -7 11 -13 6 -23 20 -23 30 0 11 -4 16 -10 13 -5 -3 -10 3 -10 15
0 11 -6 23 -14 26 -8 3 -12 12 -9 20 3 9 0 14 -8 12 -9 -2 -13 4 -11 15 2 10
-3 17 -13 17 -9 0 -13 5 -10 10 3 6 1 10 -5 10 -6 0 -8 5 -5 10 3 6 1 10 -5
10 -7 0 -9 7 -6 17 4 10 4 14 0 11 -9 -10 -34 17 -34 37 0 10 -5 13 -12 9 -7
-4 -2 5 11 19 26 29 37 35 25 15 -10 -17 19 7 66 53 20 20 34 41 32 47 -1 5 2
14 9 18 8 5 9 3 4 -6 -5 -8 -4 -11 3 -7 5 4 8 16 5 27 -3 11 0 27 7 35 6 8 9
19 6 24 -4 5 -2 12 3 15 11 7 9 55 -2 74 -5 7 -3 12 4 12 7 0 5 8 -7 22 -12
14 -14 19 -4 13 12 -6 13 -5 3 6 -7 7 -13 21 -13 31 0 33 -73 123 -91 113 -4
-3 -11 0 -15 6 -5 8 -2 10 7 5 8 -4 5 0 -5 8 -11 9 -28 16 -38 16 -10 0 -18 5
-18 10 0 6 -16 10 -36 10 -19 0 -33 4 -30 8 3 5 -1 9 -9 9 -8 0 -12 -4 -9 -9
3 -4 0 -8 -5 -8 -6 0 -11 5 -11 10 0 6 -5 10 -11 10 -5 0 -7 -5 -3 -11 5 -8 1
-8 -14 0 -26 14 -35 14 -27 1 8 -13 -17 -8 -27 5 -5 6 -11 5 -17 -4 -6 -9 -11
-10 -15 -2 -4 6 -12 11 -17 11 -6 0 -8 -4 -5 -8 3 -5 -1 -9 -9 -9 -8 0 -15 4
-15 9 0 4 -5 8 -11 8 -5 0 -8 -3 -6 -7 3 -5 -6 -9 -19 -9 -13 -1 -24 3 -24 8
0 6 -8 4 -17 -3 -9 -8 -14 -9 -10 -3 3 6 0 11 -8 11 -8 0 -12 -4 -9 -9 3 -4 0
-8 -5 -8 -6 0 -11 6 -11 13 0 9 -3 8 -9 -2 -7 -11 -9 -11 -13 0 -4 12 -8 11
-23 -1 -10 -8 -16 -10 -12 -4 3 6 0 11 -8 11 -8 0 -12 -4 -9 -9z m236 -116 c4
10 9 10 23 -2 11 -9 16 -10 11 -2 -4 7 -1 12 8 12 9 0 16 -6 16 -12 0 -9 4 -8
10 2 9 13 11 13 20 0 7 -11 10 -11 10 -2 0 8 5 10 13 5 18 -11 38 -13 31 -2
-3 5 0 9 5 9 6 0 11 -5 11 -11 0 -5 4 -8 9 -4 5 3 16 -2 24 -10 9 -8 19 -15
22 -15 12 0 50 -54 51 -71 1 -10 5 -26 9 -36 9 -22 13 -63 5 -63 -3 0 -7 -9
-8 -20 -4 -46 -6 -51 -19 -46 -8 3 -11 1 -8 -4 3 -5 1 -18 -4 -27 -6 -10 -11
-15 -11 -11 0 4 -11 -4 -25 -18 -14 -14 -29 -23 -34 -19 -5 3 -12 1 -15 -4 -3
-5 -21 -5 -41 -1 -19 4 -35 4 -35 0 0 -4 -18 -4 -40 0 -22 4 -40 5 -40 1 0 -3
-26 -6 -57 -6 -55 0 -59 1 -69 30 -7 17 -8 37 -3 46 5 10 3 21 -4 29 -9 10 -9
11 1 6 6 -4 12 -2 12 3 0 6 -5 11 -11 11 -5 0 -7 5 -3 12 10 16 11 118 1 118
-5 0 -5 6 0 13 11 17 10 31 -2 39 -6 5 -4 8 5 8 13 0 13 1 0 10 -9 6 -11 10
-3 10 7 0 10 6 7 14 -6 16 12 16 35 2 10 -6 12 -5 7 2 -4 7 -1 12 8 12 9 0 16
-6 17 -12 0 -10 2 -10 5 -1 3 7 12 9 21 6 12 -5 14 -2 9 8 -4 8 -1 6 7 -4 11
-13 16 -15 19 -5z"/>
<path d="M2475 3680 c-3 -5 -1 -10 4 -10 6 0 11 5 11 10 0 6 -2 10 -4 10 -3 0
-8 -4 -11 -10z"/>
<path d="M1853 3655 c0 -8 4 -12 9 -9 5 3 6 10 3 15 -9 13 -12 11 -12 -6z"/>
<path d="M1975 2889 c-5 -13 -10 -17 -14 -11 -4 6 -17 9 -29 5 -19 -5 -20 -8
-10 -21 10 -12 10 -14 1 -8 -7 4 -13 3 -13 -3 0 -5 5 -13 10 -16 8 -5 8 -11 0
-20 -11 -14 -3 -48 10 -40 5 3 11 1 14 -3 3 -5 16 -7 30 -5 19 4 23 10 22 34
-1 16 0 29 3 29 3 0 6 11 6 24 0 13 -4 24 -10 23 -5 -1 -9 6 -7 16 4 24 -5 21
-13 -4z"/>
<path d="M2867 2887 c4 -6 -1 -8 -11 -4 -10 4 -15 3 -11 -3 3 -6 1 -10 -4 -10
-6 0 -11 -5 -11 -11 0 -5 6 -7 13 -3 8 5 8 2 -2 -9 -7 -9 -9 -17 -4 -17 5 0
10 -7 10 -15 0 -11 -4 -12 -14 -4 -20 17 -16 5 7 -21 27 -31 59 -33 70 -6 4
12 6 25 3 29 -3 4 1 15 9 24 11 14 11 16 -1 8 -11 -6 -13 -4 -8 8 3 10 2 17
-4 17 -6 0 -7 4 -4 10 4 6 -1 7 -11 3 -10 -4 -15 -2 -11 4 3 5 0 10 -8 10 -8
0 -11 -5 -8 -10z"/>
<path d="M1615 2878 c-3 -7 -3 -22 -1 -33 2 -11 -2 -23 -8 -27 -6 -5 -7 -8 -1
-8 6 0 9 -24 8 -56 -2 -34 2 -63 9 -72 9 -11 10 -14 1 -9 -16 10 -16 -92 0
-112 9 -11 9 -13 0 -8 -16 10 -16 -172 0 -192 9 -11 9 -13 0 -8 -16 10 -16
-92 0 -112 9 -12 9 -13 0 -7 -9 5 -13 -1 -13 -19 0 -18 4 -24 13 -20 6 4 3 -1
-7 -9 -11 -9 -15 -16 -8 -16 6 0 9 -7 5 -17 -4 -10 -2 -14 4 -10 5 3 10 0 10
-8 0 -8 -4 -12 -8 -9 -4 2 -11 -1 -15 -7 -4 -7 -3 -9 3 -6 6 4 17 -1 24 -10
10 -11 10 -14 2 -9 -9 5 -11 2 -7 -8 3 -8 14 -13 24 -11 14 3 17 -1 13 -12 -5
-13 0 -15 30 -11 29 3 37 0 37 -12 0 -12 2 -13 9 -1 5 7 14 10 20 7 6 -4 11
-2 11 5 0 9 3 9 14 0 11 -9 16 -9 22 0 5 8 3 9 -6 4 -9 -5 -11 -4 -6 4 6 9 11
9 21 1 10 -8 14 -3 17 24 3 26 1 33 -11 28 -8 -3 -12 -1 -9 4 7 11 -43 11 -60
0 -7 -4 -12 -2 -12 3 0 6 -9 11 -20 11 -11 0 -19 3 -18 8 1 4 -2 18 -5 32 -13
47 -15 110 -4 110 6 0 2 7 -9 15 -11 9 -13 13 -4 10 12 -4 15 3 14 37 -1 24 2
53 7 65 6 15 5 22 -3 20 -6 -1 -13 4 -16 12 -2 8 -1 11 4 8 5 -3 9 5 9 18 0
13 -3 21 -7 18 -5 -2 -3 8 2 22 12 32 12 38 2 31 -4 -2 -8 11 -8 30 0 19 5 34
10 34 5 0 1 7 -10 15 -11 9 -13 13 -4 10 12 -4 15 3 14 37 -1 24 2 53 7 65 6
15 5 22 -3 20 -6 -1 -13 4 -16 12 -2 8 -1 11 4 8 5 -3 9 23 9 56 0 59 -1 62
-25 62 -14 0 -31 -4 -39 -9 -10 -6 -12 -5 -7 2 4 7 5 12 1 12 -3 0 -8 -6 -10
-12z"/>
<path d="M2442 2660 c2 -11 -5 -14 -24 -12 -16 2 -28 -1 -28 -7 0 -6 -9 -11
-20 -11 -11 0 -20 -5 -20 -11 0 -5 -4 -7 -10 -4 -5 3 -10 -1 -10 -9 0 -9 -3
-15 -7 -15 -24 4 -35 -3 -29 -17 3 -8 2 -12 -3 -9 -6 3 -14 -2 -19 -12 -20
-35 -37 -23 -37 28 0 37 2 45 12 37 18 -15 16 -2 -3 16 -8 9 -29 16 -45 16
-26 0 -29 -3 -24 -21 6 -16 4 -20 -6 -14 -11 6 -11 5 -2 -5 10 -11 9 -16 -5
-27 -10 -8 -12 -12 -4 -11 10 2 14 -11 16 -44 1 -25 -2 -44 -6 -41 -5 2 -5 9
-2 15 4 7 2 8 -4 4 -11 -7 -6 -36 7 -36 12 0 10 -33 -3 -49 -8 -11 -8 -13 2
-7 7 4 12 1 12 -9 0 -9 -5 -13 -11 -9 -8 4 -8 0 0 -15 9 -16 9 -21 -1 -21 -9
0 -9 -3 2 -10 11 -7 11 -10 2 -10 -9 0 -10 -5 -2 -19 12 -24 13 -34 2 -27 -5
3 -9 -1 -9 -9 0 -8 3 -12 6 -11 3 2 7 -8 8 -22 0 -15 -4 -30 -10 -34 -8 -5 -9
-8 -1 -8 7 0 9 -11 6 -26 -4 -20 -2 -25 8 -19 9 5 11 4 6 -4 -4 -6 -13 -8 -19
-4 -7 4 -5 -2 3 -12 14 -17 13 -18 -4 -12 -17 7 -17 6 -5 -9 8 -10 13 -20 12
-23 -1 -3 1 -8 4 -11 4 -3 3 1 -2 9 -6 10 -4 12 5 6 10 -6 10 -10 -2 -19 -26
-19 5 -38 48 -30 20 4 32 9 27 13 -11 8 -10 44 2 53 6 4 1 8 -10 8 -15 0 -17
2 -6 9 7 5 10 14 7 20 -4 6 -2 11 5 11 9 0 9 3 0 14 -9 11 -9 15 1 19 9 4 10
6 1 6 -7 1 -10 8 -7 16 4 9 0 15 -7 15 -12 0 -12 2 0 9 8 5 11 16 8 25 -4 9
-2 16 4 16 6 0 7 5 4 10 -4 6 -12 7 -18 4 -8 -5 -8 -3 1 7 6 7 12 24 12 37 0
16 -4 21 -12 16 -10 -6 -10 -4 0 8 7 9 13 32 14 51 1 20 5 34 10 31 7 -5 12
10 9 29 0 4 6 7 15 7 8 0 12 5 9 10 -3 6 -1 10 5 10 6 0 8 6 4 13 -4 6 -4 9 1
5 11 -11 47 11 39 24 -5 7 0 9 14 6 12 -4 26 0 33 8 7 8 18 13 25 10 7 -3 16
-1 19 4 7 11 55 9 55 -2 0 -4 8 -5 19 -3 23 4 73 -67 64 -92 -5 -12 -3 -14 7
-8 8 5 11 3 8 -6 -3 -8 -1 -24 3 -36 5 -15 5 -23 -2 -23 -6 0 -7 -5 -3 -11 10
-16 11 -99 1 -99 -5 0 -5 -5 -1 -12 4 -6 7 -62 6 -124 l-1 -114 39 3 40 2 -3
95 c-1 74 1 98 13 108 10 9 11 11 1 6 -11 -5 -13 1 -9 30 2 20 0 36 -4 36 -4
0 -8 5 -8 11 0 6 8 8 18 5 14 -5 14 -4 -2 9 -11 8 -14 15 -7 15 7 0 9 4 6 10
-3 5 -7 37 -7 70 -1 33 -4 60 -8 60 -3 0 -7 12 -8 28 -1 15 -11 35 -23 45 -12
9 -16 17 -9 17 8 0 7 4 -2 13 -25 22 -57 37 -83 37 -18 0 -24 4 -19 13 5 9 4
9 -6 0 -7 -6 -19 -9 -26 -6 -8 3 -14 -1 -14 -8 0 -8 -6 -5 -15 7 -10 13 -14
14 -13 4z"/>
<path d="M3293 2664 c4 -7 0 -14 -7 -17 -8 -3 -17 -1 -20 6 -3 9 -5 9 -5 0 -1
-7 -8 -10 -18 -6 -11 4 -14 3 -9 -5 7 -11 -21 -18 -48 -13 -5 1 -3 -5 4 -14
11 -13 10 -15 -2 -10 -16 6 -101 -69 -90 -79 3 -3 0 -6 -7 -6 -7 0 -9 -4 -6
-10 3 -5 2 -10 -4 -10 -6 0 -7 -8 -4 -17 5 -12 2 -15 -8 -11 -11 4 -14 -5 -14
-42 0 -36 -3 -46 -14 -42 -9 4 -8 -4 5 -24 14 -22 15 -26 3 -17 -13 10 -16 10
-16 -2 0 -8 4 -15 9 -15 4 0 8 -13 8 -30 0 -17 5 -30 13 -30 9 0 9 -2 -1 -8
-9 -7 -8 -14 8 -32 15 -18 17 -26 9 -37 -10 -11 -8 -12 6 -7 13 5 16 3 13 -7
-5 -14 27 -49 45 -49 6 0 8 -3 4 -6 -9 -10 16 -32 30 -27 7 3 13 -2 13 -12 0
-9 4 -14 9 -10 5 3 15 -1 23 -8 7 -7 29 -13 50 -12 20 0 34 -4 30 -9 -3 -5 2
-7 11 -3 10 4 17 1 17 -6 0 -8 4 -6 10 3 5 8 10 10 10 4 0 -7 11 -11 24 -10
15 0 21 5 16 11 -6 7 4 10 26 9 22 -1 37 3 41 11 2 8 10 12 17 9 7 -3 24 6 37
20 13 14 30 26 37 26 6 0 11 4 10 9 -2 5 5 16 16 23 16 13 17 16 3 30 -9 9
-13 18 -10 22 4 3 1 6 -5 6 -7 0 -12 -6 -12 -12 0 -10 -3 -9 -9 1 -7 12 -12
11 -30 -1 -11 -8 -18 -18 -14 -21 3 -4 -2 -7 -11 -7 -12 0 -16 -5 -13 -14 4
-10 0 -13 -14 -11 -13 3 -23 -3 -29 -18 -5 -12 -9 -16 -9 -9 -1 15 -22 11 -39
-8 -8 -8 -11 -9 -7 -2 4 8 -1 12 -14 12 -12 0 -21 -5 -21 -12 0 -7 -6 -6 -17
4 -10 9 -23 13 -30 11 -25 -9 -123 60 -123 87 0 6 -4 9 -9 6 -5 -4 -8 5 -6 19
1 14 -2 28 -8 32 -6 4 -7 1 -2 -7 6 -9 4 -11 -4 -6 -7 5 -10 14 -7 22 3 8 2
14 -2 14 -4 0 -7 33 -7 74 0 57 2 72 11 65 9 -7 12 -5 9 8 -1 10 2 27 8 38 6
11 10 24 9 28 -1 5 2 6 8 2 5 -3 10 1 10 9 0 9 7 16 15 16 8 0 15 6 15 14 0 8
10 13 23 12 12 0 21 4 20 11 -1 6 4 14 13 17 10 4 13 2 8 -7 -6 -9 -4 -9 7 -1
8 6 24 10 37 8 17 -3 21 0 16 8 -6 10 -5 10 7 1 8 -6 27 -10 41 -9 15 2 25 0
23 -4 -3 -5 2 -11 11 -14 10 -4 13 -2 7 7 -4 6 8 0 26 -16 18 -15 36 -25 40
-22 5 2 6 -8 3 -23 -5 -24 -4 -26 11 -13 16 12 22 8 18 -12 -1 -5 3 -6 9 -2 6
3 8 11 5 16 -5 8 15 14 37 10 4 0 6 8 5 19 -1 10 -5 16 -9 14 -4 -3 -12 5 -17
18 -11 30 -37 52 -51 43 -6 -4 -9 -1 -8 6 2 7 -3 13 -10 14 -7 0 -17 7 -22 15
-7 11 -10 12 -10 2 0 -10 -4 -9 -16 3 -12 12 -19 13 -24 5 -5 -8 -10 -9 -14
-2 -3 6 -21 8 -39 6 -24 -4 -28 -2 -17 5 9 7 10 11 3 11 -6 0 -15 -5 -18 -10
-5 -8 -12 -7 -23 2 -9 8 -13 8 -9 2z m238 -81 c13 -16 12 -17 -3 -4 -17 13
-22 21 -14 21 2 0 10 -8 17 -17z"/>
<path d="M1155 2650 c-3 -6 -11 -8 -16 -5 -5 4 -9 1 -9 -5 0 -6 -4 -8 -10 -5
-5 3 -10 2 -10 -4 0 -5 -9 -8 -21 -6 -18 4 -19 2 -7 -12 11 -15 11 -16 -5 -10
-11 4 -20 1 -23 -8 -4 -8 -10 -12 -15 -9 -5 3 -9 -2 -9 -11 0 -11 -5 -15 -14
-12 -10 4 -13 1 -9 -9 3 -7 0 -14 -6 -14 -6 0 -11 -7 -11 -15 0 -8 -5 -15 -11
-15 -5 0 -7 -4 -4 -10 3 -5 2 -10 -3 -10 -6 0 -13 -7 -16 -16 -4 -10 -2 -13 7
-8 8 6 8 3 -1 -9 -8 -9 -10 -22 -6 -28 4 -7 3 -9 -4 -5 -7 4 -10 -17 -8 -68 2
-51 -1 -73 -8 -70 -6 3 0 -4 13 -15 14 -13 18 -21 10 -21 -11 -1 -11 -3 1 -13
9 -7 15 -19 15 -27 0 -8 8 -23 19 -32 10 -10 15 -18 10 -18 -5 0 -1 -5 9 -11
9 -6 15 -14 12 -19 -3 -5 0 -12 6 -16 8 -4 9 -3 5 4 -4 7 -3 12 2 12 5 0 12
-9 15 -21 3 -12 10 -18 15 -15 6 3 13 -1 16 -10 4 -10 14 -14 26 -11 11 3 18
1 14 -4 -3 -5 -2 -9 3 -10 29 -2 59 -11 67 -19 6 -6 14 -5 23 1 9 8 13 8 13 0
0 -6 5 -11 11 -11 5 0 7 5 4 10 -3 6 -2 10 4 10 5 0 12 -6 14 -12 4 -10 6 -10
6 0 1 7 6 10 11 7 6 -3 10 -1 10 6 0 8 3 9 13 0 8 -6 17 -7 21 -3 4 4 13 7 19
7 7 1 11 6 10 12 -1 6 6 9 16 6 11 -3 21 2 25 12 3 9 10 13 16 10 6 -3 13 1
16 9 3 9 11 13 17 9 7 -4 8 0 4 12 -6 14 -3 16 13 12 17 -4 19 -3 9 9 -7 8 -7
14 -1 14 5 0 13 8 16 17 4 10 4 14 0 10 -4 -4 -12 1 -19 10 -9 13 -14 13 -20
3 -6 -9 -4 -11 5 -5 9 5 11 4 6 -4 -4 -6 -12 -9 -17 -5 -5 3 -7 10 -4 15 4 5
-1 9 -9 9 -8 0 -20 -9 -26 -20 -6 -11 -15 -18 -20 -15 -5 3 -11 -4 -15 -14 -4
-13 -11 -18 -22 -14 -11 4 -14 2 -9 -5 6 -11 -5 -17 -26 -13 -5 0 -8 -3 -8 -7
0 -4 -27 -8 -60 -8 -33 0 -60 4 -60 10 0 5 -3 6 -7 3 -3 -4 -15 1 -26 10 -15
13 -19 14 -13 3 5 -9 2 -8 -7 2 -8 10 -18 14 -22 10 -5 -4 -5 1 -2 10 3 10 3
17 -1 17 -26 -4 -34 1 -22 16 11 13 10 14 -3 9 -12 -4 -18 2 -23 20 -3 14 -10
26 -15 26 -5 0 -8 3 -8 8 5 27 -2 52 -13 46 -7 -5 -8 -3 -2 7 8 14 11 29 17
121 2 26 7 51 12 55 4 4 5 2 1 -4 -4 -7 -2 -13 3 -13 6 0 11 9 11 21 0 11 5
17 10 14 6 -3 10 1 10 9 0 9 7 16 16 16 10 0 14 5 10 16 -3 8 -2 12 3 9 5 -3
13 0 16 6 4 5 13 8 20 5 7 -2 16 2 19 9 4 11 14 13 37 8 20 -4 30 -2 26 4 -3
5 0 10 8 10 8 0 12 -4 9 -9 -3 -4 9 -6 26 -4 22 2 33 -2 41 -16 5 -10 15 -16
20 -12 6 3 17 -2 25 -12 9 -11 12 -12 8 -4 -4 8 -4 12 1 8 4 -4 13 -18 20 -30
7 -15 18 -22 31 -20 10 2 29 5 40 5 22 2 22 11 2 54 -6 12 -15 20 -20 17 -4
-3 -8 2 -8 11 0 9 -4 14 -8 11 -5 -3 -14 4 -22 14 -8 10 -17 17 -21 14 -4 -2
-15 3 -23 12 -11 11 -16 12 -16 3 0 -7 -6 -4 -15 7 -9 12 -14 14 -15 6 0 -8
-5 -10 -12 -5 -19 11 -37 12 -44 2 -3 -5 -11 -6 -17 -2 -19 12 -36 12 -43 2
-4 -6 -11 -6 -19 1 -9 8 -15 8 -20 0z"/>
<path d="M2870 2649 c0 -4 -7 -6 -16 -5 -9 0 -19 -5 -22 -13 -2 -8 0 -11 6 -7
14 9 9 -18 -7 -38 -12 -14 -12 -16 0 -11 16 6 19 -30 6 -52 -4 -7 -3 -15 3
-18 8 -5 8 -11 0 -20 -8 -10 -7 -14 2 -18 10 -4 10 -6 1 -6 -9 -1 -10 -8 -3
-27 8 -21 8 -25 -3 -21 -8 3 -14 -1 -14 -9 0 -7 4 -11 8 -8 4 2 10 0 14 -6 3
-5 1 -10 -4 -10 -6 0 -11 -7 -11 -15 0 -8 6 -15 13 -15 7 0 8 -3 2 -8 -16 -11
-18 -52 -3 -53 7 0 4 -4 -7 -9 -15 -6 -16 -9 -4 -9 9 -1 16 -8 16 -16 0 -8 -4
-12 -9 -9 -4 3 -8 1 -8 -5 0 -5 6 -12 13 -14 9 -4 9 -6 0 -6 -9 -1 -10 -8 -3
-27 9 -23 8 -25 -7 -20 -14 6 -14 4 3 -15 15 -18 16 -21 3 -16 -13 4 -16 1
-12 -14 3 -10 10 -19 17 -19 6 0 4 -5 -4 -10 -8 -5 -11 -10 -6 -10 5 0 3 -7
-4 -15 -11 -13 -10 -14 4 -9 9 3 16 1 16 -5 0 -10 45 -13 63 -4 4 2 2 13 -4
25 -9 16 -8 19 2 13 8 -6 11 -4 6 7 -3 9 0 21 6 28 10 10 8 11 -7 6 -19 -7
-19 -6 -2 13 13 14 14 21 5 27 -8 5 -10 3 -4 -6 5 -9 4 -11 -4 -6 -6 4 -8 12
-5 18 10 16 11 82 2 95 -5 6 -5 14 2 18 5 3 10 11 10 16 0 6 -4 8 -8 5 -5 -3
-9 1 -9 9 0 8 5 11 10 8 6 -4 8 0 4 9 -3 9 0 21 6 28 10 10 8 11 -7 6 -19 -7
-19 -6 -2 13 13 14 14 21 5 27 -8 5 -10 3 -4 -6 5 -9 4 -11 -4 -6 -6 4 -8 12
-5 18 4 6 7 28 8 49 1 21 5 41 8 45 4 3 -1 18 -10 32 -9 15 -12 23 -5 19 9 -6
11 2 7 30 -3 21 -6 43 -7 48 0 12 -37 15 -37 4z"/>
<path d="M1910 2638 c0 -4 6 -8 13 -8 8 0 7 -4 -3 -10 -13 -9 -13 -10 0 -10
13 0 13 -1 0 -10 -12 -8 -13 -11 -1 -19 11 -7 11 -9 0 -14 -12 -5 -12 -7 0
-15 11 -8 11 -10 0 -15 -11 -4 -11 -6 1 -6 13 -1 13 -2 0 -11 -12 -8 -13 -11
-1 -19 11 -7 11 -9 0 -14 -12 -4 -11 -7 1 -16 13 -10 13 -11 0 -11 -12 0 -13
-2 -1 -9 11 -7 11 -9 0 -14 -12 -5 -12 -7 0 -15 11 -8 11 -10 0 -15 -12 -4
-11 -7 1 -16 13 -10 13 -11 0 -11 -12 0 -13 -2 -1 -9 11 -7 11 -9 0 -14 -12
-5 -12 -7 0 -15 11 -8 11 -10 0 -15 -12 -4 -11 -7 1 -16 13 -10 13 -11 0 -11
-12 0 -13 -2 -1 -9 11 -7 11 -10 0 -15 -12 -5 -12 -7 0 -12 11 -5 11 -8 0 -15
-12 -8 -12 -10 0 -18 11 -7 11 -9 0 -14 -11 -4 -11 -6 1 -6 13 -1 13 -2 0 -11
-13 -9 -13 -11 0 -20 8 -5 10 -10 4 -10 -7 0 -15 -7 -18 -16 -5 -13 -3 -14 7
-6 10 8 13 6 13 -8 0 -10 -4 -16 -8 -14 -4 3 -8 0 -8 -5 0 -6 6 -11 13 -12 6
0 3 -4 -8 -9 -19 -8 -19 -9 -1 -9 15 -1 16 -4 7 -15 -14 -17 -1 -23 44 -22 23
1 30 6 30 21 1 11 4 25 8 32 4 6 3 15 -3 18 -8 5 -7 12 2 23 10 12 10 16 1 19
-9 3 -10 10 -3 23 6 10 6 21 2 24 -10 6 -9 36 0 52 4 5 3 16 -2 24 -5 8 -5 22
1 32 7 12 6 18 -1 18 -8 0 -8 6 0 20 6 11 7 20 2 20 -10 0 -9 30 0 46 4 5 3
16 -2 24 -5 9 -5 19 2 27 7 9 7 13 -1 13 -8 0 -9 5 -1 19 5 11 6 22 2 25 -10
6 -9 36 0 52 4 5 3 16 -2 24 -4 7 -6 19 -3 27 4 11 -5 14 -41 12 -25 -2 -46
-6 -46 -11z"/>
<path d="M3860 2627 c-40 -10 -75 -39 -96 -79 -21 -41 -18 -48 26 -48 22 0 40
5 40 10 0 21 41 50 70 50 37 0 80 -39 80 -73 0 -32 -38 -66 -78 -69 -29 -2
-32 -5 -32 -34 0 -27 3 -31 29 -32 62 -2 98 -46 86 -104 -14 -60 -92 -78 -139
-31 -17 17 -40 28 -62 30 -41 3 -44 -10 -11 -57 37 -54 69 -73 130 -73 98 -1
160 59 160 156 0 40 -5 53 -32 81 -24 25 -29 35 -18 39 25 10 49 76 42 115
-17 92 -102 144 -195 119z"/>
<path d="M4248 2629 c-46 -12 -86 -48 -99 -87 -19 -56 -15 -311 5 -350 35 -68
134 -96 208 -58 59 30 81 71 80 155 -1 123 -43 165 -161 159 l-66 -3 2 39 c1
21 10 47 19 57 23 26 75 24 109 -3 36 -28 91 -30 87 -2 -12 68 -105 115 -184
93z m75 -250 c33 -15 45 -44 42 -102 -3 -61 -25 -87 -75 -87 -50 0 -73 27 -75
88 -2 57 17 99 47 105 13 2 26 5 30 6 4 0 18 -4 31 -10z"/>
<path d="M4629 2630 c-43 -12 -76 -39 -94 -77 -24 -49 -25 -300 -3 -354 32
-73 133 -105 210 -65 71 35 81 64 81 230 0 83 -5 157 -12 178 -21 62 -114 107
-182 88z m92 -89 c23 -18 23 -24 24 -164 0 -168 -8 -187 -75 -187 -67 0 -75
20 -75 185 1 126 3 146 19 164 24 27 76 27 107 2z"/>
<path d="M1693 2565 c0 -8 4 -12 9 -9 5 3 6 10 3 15 -9 13 -12 11 -12 -6z"/>
<path d="M2245 2561 c-3 -5 -2 -12 3 -15 5 -3 9 1 9 9 0 17 -3 19 -12 6z"/>
<path d="M2155 2440 c-3 -5 -1 -10 4 -10 6 0 11 5 11 10 0 6 -2 10 -4 10 -3 0
-8 -4 -11 -10z"/>
<path d="M1693 2245 c0 -8 4 -12 9 -9 5 3 6 10 3 15 -9 13 -12 11 -12 -6z"/>
</g>
</svg>
